<svg width="25" height="25" viewBox="0 0 25 25" fill="none" xmlns="http://www.w3.org/2000/svg">
<g id="solar:notebook-square-bold">
<path id="Vector" fill-rule="evenodd" clip-rule="evenodd" d="M3.30415 2.2625C2.08331 3.48229 2.08331 5.44688 2.08331 9.375V13.5417C2.08331 17.4698 2.08331 19.4344 3.30415 20.6542C4.52394 21.875 6.48852 21.875 10.4166 21.875H14.5833C18.5114 21.875 20.476 21.875 21.6958 20.6542C22.9166 19.4344 22.9166 17.4698 22.9166 13.5417V9.375C22.9166 5.44688 22.9166 3.48229 21.6958 2.2625C20.476 1.04167 18.5114 1.04167 14.5833 1.04167H10.4166C6.48852 1.04167 4.52394 1.04167 3.30415 2.2625ZM13.0281 16.3771L13.0208 16.3813V7.58646L13.0437 7.57292C13.6198 7.23958 14.551 6.74375 15.3125 6.53125C15.875 6.37604 16.6041 6.30417 17.2469 6.27292C18.0854 6.23125 18.75 6.92188 18.75 7.7625V13.449C18.75 14.3167 18.0416 15.0156 17.1771 15.0802C16.65 15.1198 16.0812 15.1854 15.625 15.2969C14.7531 15.5104 13.6635 16.0427 13.0281 16.3771ZM6.24998 7.80833V13.449C6.24998 14.3167 6.95831 15.0156 7.8229 15.0802C8.34998 15.1198 8.91873 15.1854 9.37498 15.2969C10.2469 15.5104 11.3364 16.0427 11.9719 16.3771L11.9791 16.3813V7.61563C11.9669 7.60961 11.9547 7.60335 11.9427 7.59688C11.3021 7.26146 10.2333 6.74271 9.37498 6.53229C8.91248 6.41875 8.33331 6.35208 7.79894 6.31354C6.94269 6.25 6.24998 6.95104 6.24998 7.80833Z" fill="#555555"/>
</g>
</svg>
