<svg width="25" height="25" viewBox="0 0 25 25" fill="none" xmlns="http://www.w3.org/2000/svg">
<g id="solar:laptop-minimalistic-bold">
<path id="Vector" fill-rule="evenodd" clip-rule="evenodd" d="M1.04167 21.0833C1.04167 20.6458 1.40001 20.2917 1.84063 20.2917H23.1594C23.6 20.2917 23.9583 20.6458 23.9583 21.0833C23.9583 21.5208 23.6 21.875 23.1594 21.875H1.84063C1.62974 21.8758 1.42714 21.7929 1.27734 21.6445C1.12754 21.496 1.04277 21.2942 1.04167 21.0833ZM3.84376 4.05208C2.90626 4.97917 2.90626 6.47292 2.90626 9.45833V14.7365C2.90626 16.726 2.90626 17.7219 3.53126 18.3406C4.15626 18.9583 5.16042 18.9583 7.17084 18.9583H17.8292C19.8396 18.9583 20.8448 18.9583 21.4688 18.3396C22.0938 17.7219 22.0938 16.726 22.0938 14.7354V9.45833C22.0938 6.47292 22.0938 4.97917 21.1563 4.05208C20.2198 3.125 18.7125 3.125 15.6979 3.125H9.30209C6.28751 3.125 4.78021 3.125 3.84376 4.05208ZM8.50313 15.7917C8.50313 15.3542 8.86042 15 9.30209 15H15.6979C16.1396 15 16.4969 15.3542 16.4969 15.7917C16.4969 16.2292 16.1396 16.5833 15.6979 16.5833H9.30209C9.0912 16.5842 8.8886 16.5013 8.7388 16.3528C8.58899 16.2044 8.50423 16.0026 8.50313 15.7917Z" fill="#555555"/>
</g>
</svg>
