<svg width="25" height="25" viewBox="0 0 25 25" fill="none" xmlns="http://www.w3.org/2000/svg">
<g id="solar:folder-path-connect-bold">
<path id="Vector" fill-rule="evenodd" clip-rule="evenodd" d="M19.7917 8.71771V10.2083C19.7917 12.7615 19.7917 14.0385 18.9375 14.8312C18.0833 15.625 16.7083 15.625 13.9583 15.625H13.2812V18.75C13.2813 18.7989 13.2768 18.8477 13.2677 18.8958C13.7958 19.1052 14.2187 19.525 14.4323 20.0521H22.1354C22.3426 20.0521 22.5413 20.1344 22.6878 20.2809C22.8344 20.4274 22.9167 20.6261 22.9167 20.8333C22.9167 21.0405 22.8344 21.2392 22.6878 21.3858C22.5413 21.5323 22.3426 21.6146 22.1354 21.6146H14.4323C14.277 21.9999 14.01 22.33 13.6657 22.5625C13.3214 22.7949 12.9154 22.9191 12.5 22.9191C12.0846 22.9191 11.6786 22.7949 11.3343 22.5625C10.99 22.33 10.723 21.9999 10.5677 21.6146H2.86458C2.65738 21.6146 2.45866 21.5323 2.31215 21.3858C2.16564 21.2392 2.08333 21.0405 2.08333 20.8333C2.08333 20.6261 2.16564 20.4274 2.31215 20.2809C2.45866 20.1344 2.65738 20.0521 2.86458 20.0521H10.5677C10.7812 19.525 11.2031 19.1052 11.7323 18.8958C11.7232 18.8477 11.7187 18.7989 11.7187 18.75V15.625H11.0417C8.29166 15.625 6.91666 15.625 6.06249 14.8323C5.20833 14.0375 5.20833 12.7604 5.20833 10.2083V5.43437C5.20833 4.8375 5.20833 4.53854 5.25937 4.28958C5.48124 3.19375 6.4052 2.3375 7.58437 2.13021C7.85208 2.08333 8.17395 2.08333 8.8177 2.08333C9.09895 2.08333 9.24062 2.08333 9.37604 2.09479C9.95937 2.14583 10.5146 2.35937 10.9656 2.70625C11.0698 2.7875 11.1698 2.88021 11.3698 3.06458L11.7708 3.4375C12.3656 3.98958 12.6635 4.26562 13.0187 4.45C13.2146 4.55104 13.4229 4.63125 13.6375 4.6875C14.0302 4.79167 14.45 4.79167 15.2917 4.79167H15.5635C17.4833 4.79167 18.4427 4.79167 19.0667 5.3125C19.124 5.36042 19.1792 5.41146 19.2302 5.46458C19.7917 6.04375 19.7917 6.93542 19.7917 8.71771ZM13.2812 7.8125C13.2812 7.6053 13.3636 7.40658 13.5101 7.26007C13.6566 7.11356 13.8553 7.03125 14.0625 7.03125H17.1875C17.3947 7.03125 17.5934 7.11356 17.7399 7.26007C17.8864 7.40658 17.9687 7.6053 17.9687 7.8125C17.9687 8.0197 17.8864 8.21841 17.7399 8.36493C17.5934 8.51144 17.3947 8.59375 17.1875 8.59375H14.0625C13.8553 8.59375 13.6566 8.51144 13.5101 8.36493C13.3636 8.21841 13.2812 8.0197 13.2812 7.8125Z" fill="#555555"/>
</g>
</svg>
