<svg width="25" height="25" viewBox="0 0 25 25" fill="none" xmlns="http://www.w3.org/2000/svg">
<g id="solar:widget-bold-duotone">
<g id="Group">
<path id="Vector" opacity="0.5" d="M2.78423 15.2842C1.47193 13.9719 0.815471 13.3155 0.815471 12.5C0.815471 11.6845 1.47193 11.0281 2.78423 9.71577C4.09653 8.40347 4.75299 7.74701 5.56847 7.74701C6.38394 7.74701 7.0404 8.40347 8.3527 9.71577C9.665 11.0281 10.3215 11.6845 10.3215 12.5C10.3215 13.3155 9.665 13.9719 8.3527 15.2842C7.0404 16.5965 6.38394 17.253 5.56847 17.253C4.75299 17.253 4.09653 16.5965 2.78423 15.2842ZM16.396 15.2842C15.0837 13.9719 14.4273 13.3155 14.4273 12.5C14.4273 11.6845 15.0837 11.0281 16.396 9.71577C17.7083 8.40347 18.3648 7.747 19.1803 7.74701C19.9957 7.74701 20.6522 8.40347 21.9645 9.71577C23.2768 11.0281 23.9333 11.6845 23.9333 12.5C23.9333 13.3155 23.2768 13.9719 21.9645 15.2842C20.6522 16.5965 19.9957 17.253 19.1803 17.253C18.3648 17.253 17.7083 16.5965 16.396 15.2842Z" fill="#555555"/>
<path id="Vector_2" d="M9.59014 22.0901C8.27783 20.7778 7.62137 20.1214 7.62137 19.3059C7.62137 18.4904 8.27783 17.834 9.59014 16.5217C10.9024 15.2094 11.5589 14.5529 12.3744 14.5529C13.1898 14.5529 13.8463 15.2094 15.1586 16.5217C16.4709 17.834 17.1274 18.4904 17.1274 19.3059C17.1274 20.1214 16.4709 20.7778 15.1586 22.0901C13.8463 23.4024 13.1898 24.0589 12.3744 24.0589C11.5589 24.0589 10.9024 23.4024 9.59014 22.0901ZM9.59014 8.47833C8.27783 7.16603 7.62137 6.50957 7.62137 5.6941C7.62137 4.87863 8.27783 4.22217 9.59014 2.90986C10.9024 1.59756 11.5589 0.941102 12.3744 0.941103C13.1898 0.941102 13.8463 1.59756 15.1586 2.90986C16.4709 4.22217 17.1274 4.87863 17.1274 5.6941C17.1274 6.50957 16.4709 7.16603 15.1586 8.47833C13.8463 9.79063 13.1898 10.4471 12.3744 10.4471C11.5589 10.4471 10.9024 9.79063 9.59014 8.47833Z" fill="#555555"/>
</g>
</g>
</svg>
